<?xml version="1.0" encoding="UTF-8" standalone="no"?><svg xmlns="http://www.w3.org/2000/svg" xmlns:xlink="http://www.w3.org/1999/xlink" fill="#5c5da6" height="160" preserveAspectRatio="xMidYMid meet" version="1" viewBox="0.0 0.0 144.0 160.0" width="144" zoomAndPan="magnify"><g id="change1_1"><path d="M68,20c0-2.21,1.79-4,4-4s4,1.79,4,4c0,2.21-1.79,4-4,4S68,22.21,68,20z M128,139.67V148c0,6.62-5.38,12-12,12H12 c-6.62,0-12-5.38-12-12V20C0,13.38,5.38,8,12,8h12c0-4.41,3.59-8,8-8h64c4.41,0,8,3.59,8,8h12c6.62,0,12,5.38,12,12v64.33 c9.55,5.54,16,15.86,16,27.67S137.55,134.13,128,139.67z M120,142.95c-2.56,0.66-5.23,1.05-8,1.05c-17.64,0-32-14.36-32-32 s14.36-32,32-32c2.77,0,5.44,0.39,8,1.05V20c0-2.21-1.79-4-4-4h-12c0,4.41-3.59,8-8,8H84c-2.21,0-4-1.79-4-4s1.79-4,4-4h12V8H32v8 h28c2.21,0,4,1.79,4,4s-1.79,4-4,4H32c-4.41,0-8-3.59-8-8H12c-2.21,0-4,1.79-4,4v128c0,2.21,1.79,4,4,4h104c2.21,0,4-1.79,4-4 V142.95z M136,112c0-13.23-10.77-24-24-24s-24,10.77-24,24s10.77,24,24,24S136,125.23,136,112z M121.17,105.17L110,116.34 l-5.17-5.17c-1.56-1.56-4.09-1.56-5.66,0c-1.56,1.56-1.56,4.09,0,5.66l8,8c0.78,0.78,1.8,1.17,2.83,1.17s2.05-0.39,2.83-1.17l14-14 c1.56-1.56,1.56-4.09,0-5.66C125.27,103.61,122.73,103.61,121.17,105.17z M40,72h60c2.21,0,4-1.79,4-4s-1.79-4-4-4H40 c-2.21,0-4,1.79-4,4S37.79,72,40,72z M40,56h60c2.21,0,4-1.79,4-4s-1.79-4-4-4H40c-2.21,0-4,1.79-4,4S37.79,56,40,56z M28,48 c-2.21,0-4,1.79-4,4c0,2.21,1.79,4,4,4s4-1.79,4-4C32,49.79,30.21,48,28,48z M28,64c-2.21,0-4,1.79-4,4c0,2.21,1.79,4,4,4 s4-1.79,4-4C32,65.79,30.21,64,28,64z M76,80H40c-2.21,0-4,1.79-4,4s1.79,4,4,4h36c2.21,0,4-1.79,4-4S78.21,80,76,80z M28,80 c-2.21,0-4,1.79-4,4c0,2.21,1.79,4,4,4s4-1.79,4-4C32,81.79,30.21,80,28,80z" fill="inherit"/></g></svg>