<?xml version="1.0" encoding="UTF-8"?><svg xmlns="http://www.w3.org/2000/svg" xmlns:xlink="http://www.w3.org/1999/xlink" height="1116.5" preserveAspectRatio="xMidYMid meet" version="1.0" viewBox="0.0 0.0 2000.0 1116.5" width="2000.0" zoomAndPan="magnify"><defs><clipPath id="a"><path d="M 1944 1072 L 1989 1072 L 1989 1116.539062 L 1944 1116.539062 Z M 1944 1072"/></clipPath></defs><g><g id="change1_1"><path d="M 1883.53125 658.625 L 1923.179688 727.300781 L 2000 727.300781 L 2000 589.953125 L 1923.179688 589.953125 L 1883.53125 658.625" fill="#bdeaf9"/></g><g id="change1_2"><path d="M 1883.53125 826.300781 L 1923.179688 894.976562 L 2000 894.976562 L 2000 757.628906 L 1923.179688 757.628906 L 1883.53125 826.300781" fill="#bdeaf9"/></g><g id="change1_3"><path d="M 1923.179688 422.277344 L 1883.53125 490.949219 L 1923.179688 559.625 L 2000 559.625 L 2000 422.277344 L 1923.179688 422.277344" fill="#bdeaf9"/></g><g id="change1_4"><path d="M 1923.179688 254.601562 L 1883.53125 323.273438 L 1923.179688 391.949219 L 2000 391.949219 L 2000 254.601562 L 1923.179688 254.601562" fill="#bdeaf9"/></g><g id="change1_5"><path d="M 47.316406 805.550781 L 82.535156 744.546875 L 47.316406 683.542969 L 0 683.542969 L 0 805.550781 L 47.316406 805.550781" fill="#bdeaf9"/></g><g id="change1_6"><path d="M 82.535156 446.648438 L 47.316406 385.644531 L 0 385.644531 L 0 507.652344 L 47.316406 507.652344 L 82.535156 446.648438" fill="#bdeaf9"/></g><g id="change1_7"><path d="M 82.535156 595.597656 L 47.316406 534.59375 L 0 534.59375 L 0 656.601562 L 47.316406 656.601562 L 82.535156 595.597656" fill="#bdeaf9"/></g><g id="change1_8"><path d="M 1566.839844 841.464844 L 1487.550781 841.464844 L 1447.898438 910.140625 L 1487.550781 978.8125 L 1566.839844 978.8125 L 1606.488281 910.140625 L 1566.839844 841.464844" fill="#bdeaf9"/></g><g id="change1_9"><path d="M 1258.46875 425.707031 L 1229.578125 475.746094 L 1258.46875 525.789062 L 1316.25 525.789062 L 1345.140625 475.746094 L 1316.25 425.707031 L 1258.46875 425.707031" fill="#bdeaf9"/></g><g id="change1_10"><path d="M 1632.761719 925.304688 L 1593.109375 993.976562 L 1632.761719 1062.648438 L 1712.058594 1062.648438 L 1751.699219 993.976562 L 1712.058594 925.304688 L 1632.761719 925.304688" fill="#bdeaf9"/></g><g id="change1_11"><path d="M 1712.058594 391.949219 L 1751.699219 323.273438 L 1712.058594 254.601562 L 1632.761719 254.601562 L 1593.109375 323.273438 L 1632.761719 391.949219 L 1712.058594 391.949219" fill="#bdeaf9"/></g><g id="change1_12"><path d="M 1422.070312 586.882812 L 1450.960938 536.839844 L 1422.070312 486.796875 L 1364.28125 486.796875 L 1335.390625 536.839844 L 1364.28125 586.882812 L 1422.070312 586.882812" fill="#bdeaf9"/></g><g id="change1_13"><path d="M 1316.25 547.886719 L 1258.46875 547.886719 L 1229.578125 597.929688 L 1258.46875 647.972656 L 1316.25 647.972656 L 1345.140625 597.929688 L 1316.25 547.886719" fill="#bdeaf9"/></g><g id="change1_14"><path d="M 1422.070312 608.980469 L 1364.28125 608.980469 L 1335.390625 659.023438 L 1364.28125 709.0625 L 1422.070312 709.0625 L 1450.960938 659.023438 L 1422.070312 608.980469" fill="#bdeaf9"/></g><g id="change1_15"><path d="M 1857.269531 308.109375 L 1896.921875 239.4375 L 1857.269531 170.761719 L 1777.96875 170.761719 L 1738.320312 239.4375 L 1777.96875 308.109375 L 1857.269531 308.109375" fill="#bdeaf9"/></g><g id="change1_16"><path d="M 1487.550781 506.113281 L 1447.898438 574.789062 L 1487.550781 643.460938 L 1566.839844 643.460938 L 1606.488281 574.789062 L 1566.839844 506.113281 L 1487.550781 506.113281" fill="#bdeaf9"/></g><g id="change1_17"><path d="M 1632.761719 589.953125 L 1593.109375 658.625 L 1632.761719 727.300781 L 1712.058594 727.300781 L 1751.699219 658.625 L 1712.058594 589.953125 L 1632.761719 589.953125" fill="#bdeaf9"/></g><g id="change1_18"><path d="M 1712.058594 894.976562 L 1751.699219 826.300781 L 1712.058594 757.628906 L 1632.761719 757.628906 L 1593.109375 826.300781 L 1632.761719 894.976562 L 1712.058594 894.976562" fill="#bdeaf9"/></g><g id="change1_19"><path d="M 1777.96875 338.4375 L 1738.320312 407.113281 L 1777.96875 475.785156 L 1857.269531 475.785156 L 1896.921875 407.113281 L 1857.269531 338.4375 L 1777.96875 338.4375" fill="#bdeaf9"/></g><g id="change1_20"><path d="M 1777.96875 841.464844 L 1738.320312 910.140625 L 1777.96875 978.8125 L 1857.269531 978.8125 L 1896.921875 910.140625 L 1857.269531 841.464844 L 1777.96875 841.464844" fill="#bdeaf9"/></g><g id="change1_21"><path d="M 1364.28125 464.699219 L 1422.070312 464.699219 L 1450.960938 414.65625 L 1422.070312 364.613281 L 1364.28125 364.613281 L 1335.390625 414.65625 L 1364.28125 464.699219" fill="#bdeaf9"/></g><g id="change1_22"><path d="M 1857.269531 811.136719 L 1896.921875 742.464844 L 1857.269531 673.789062 L 1777.96875 673.789062 L 1738.320312 742.464844 L 1777.96875 811.136719 L 1857.269531 811.136719" fill="#bdeaf9"/></g><g id="change1_23"><path d="M 1857.269531 643.460938 L 1896.921875 574.789062 L 1857.269531 506.113281 L 1777.96875 506.113281 L 1738.320312 574.789062 L 1777.96875 643.460938 L 1857.269531 643.460938" fill="#bdeaf9"/></g><g id="change1_24"><path d="M 1632.761719 422.277344 L 1593.109375 490.949219 L 1632.761719 559.625 L 1712.058594 559.625 L 1751.699219 490.949219 L 1712.058594 422.277344 L 1632.761719 422.277344" fill="#bdeaf9"/></g><g id="change1_25"><path d="M 787.1875 464.699219 L 816.078125 414.65625 L 787.1875 364.613281 L 729.402344 364.613281 L 700.511719 414.65625 L 729.402344 464.699219 L 787.1875 464.699219" fill="#bdeaf9"/></g><g id="change1_26"><path d="M 729.402344 342.515625 L 787.1875 342.515625 L 816.078125 292.472656 L 787.1875 242.433594 L 729.402344 242.433594 L 700.511719 292.472656 L 729.402344 342.515625" fill="#bdeaf9"/></g><g id="change1_27"><path d="M 305.300781 683.542969 L 234.859375 683.542969 L 199.640625 744.546875 L 234.859375 805.550781 L 305.300781 805.550781 L 340.523438 744.546875 L 305.300781 683.542969" fill="#bdeaf9"/></g><g id="change1_28"><path d="M 681.375 281.425781 L 710.265625 231.382812 L 681.375 181.339844 L 623.589844 181.339844 L 594.699219 231.382812 L 623.589844 281.425781 L 681.375 281.425781" fill="#bdeaf9"/></g><g id="change1_29"><path d="M 492.847656 832.488281 L 457.625 893.492188 L 492.847656 954.496094 L 563.285156 954.496094 L 598.507812 893.492188 L 563.285156 832.488281 L 492.847656 832.488281" fill="#bdeaf9"/></g><g id="change1_30"><path d="M 176.308594 609.066406 L 105.867188 609.066406 L 70.648438 670.070312 L 105.867188 731.074219 L 176.308594 731.074219 L 211.53125 670.070312 L 176.308594 609.066406" fill="#bdeaf9"/></g><g id="change1_31"><path d="M 563.285156 805.550781 L 598.507812 744.546875 L 563.285156 683.542969 L 492.847656 683.542969 L 457.625 744.546875 L 492.847656 805.550781 L 563.285156 805.550781" fill="#bdeaf9"/></g><g id="change1_32"><path d="M 681.375 425.707031 L 623.589844 425.707031 L 594.699219 475.746094 L 623.589844 525.789062 L 681.375 525.789062 L 710.265625 475.746094 L 681.375 425.707031" fill="#bdeaf9"/></g><g id="change1_33"><path d="M 681.375 647.972656 L 710.265625 597.929688 L 681.375 547.886719 L 623.589844 547.886719 L 594.699219 597.929688 L 623.589844 647.972656 L 681.375 647.972656" fill="#bdeaf9"/></g><g id="change1_34"><path d="M 434.292969 758.015625 L 363.851562 758.015625 L 328.632812 819.019531 L 363.851562 880.023438 L 434.292969 880.023438 L 469.515625 819.019531 L 434.292969 758.015625" fill="#bdeaf9"/></g><g id="change1_35"><path d="M 575.5625 342.515625 L 604.453125 292.472656 L 575.5625 242.433594 L 517.777344 242.433594 L 488.886719 292.472656 L 517.777344 342.515625 L 575.5625 342.515625" fill="#bdeaf9"/></g><g id="change1_36"><path d="M 94.527344 342.515625 L 152.308594 342.515625 L 181.199219 292.472656 L 152.308594 242.433594 L 94.527344 242.433594 L 65.636719 292.472656 L 94.527344 342.515625" fill="#bdeaf9"/></g><g id="change1_37"><path d="M 411.964844 403.605469 L 469.746094 403.605469 L 498.640625 353.566406 L 469.746094 303.523438 L 411.964844 303.523438 L 383.074219 353.566406 L 411.964844 403.605469" fill="#bdeaf9"/></g><g id="change1_38"><path d="M 363.933594 342.515625 L 392.828125 292.472656 L 363.933594 242.433594 L 306.152344 242.433594 L 277.261719 292.472656 L 306.152344 342.515625 L 363.933594 342.515625" fill="#bdeaf9"/></g><g id="change1_39"><path d="M 202.695312 373.34375 L 255.765625 373.34375 L 282.300781 327.386719 L 255.765625 281.425781 L 202.695312 281.425781 L 176.160156 327.386719 L 202.695312 373.34375" fill="#bdeaf9"/></g><g id="change1_40"><path d="M 729.402344 486.796875 L 700.511719 536.839844 L 729.402344 586.882812 L 787.1875 586.882812 L 816.078125 536.839844 L 787.1875 486.796875 L 729.402344 486.796875" fill="#bdeaf9"/></g><g id="change1_41"><path d="M 941.03125 464.699219 L 998.8125 464.699219 L 1027.710938 414.65625 L 998.8125 364.613281 L 941.03125 364.613281 L 912.140625 414.65625 L 941.03125 464.699219" fill="#bdeaf9"/></g><g id="change1_42"><path d="M 941.03125 486.796875 L 912.140625 536.839844 L 941.03125 586.882812 L 998.8125 586.882812 L 1027.710938 536.839844 L 998.8125 486.796875 L 941.03125 486.796875" fill="#bdeaf9"/></g><g id="change1_43"><path d="M 835.21875 403.605469 L 893 403.605469 L 921.894531 353.566406 L 893 303.523438 L 835.21875 303.523438 L 806.324219 353.566406 L 835.21875 403.605469" fill="#bdeaf9"/></g><g id="change1_44"><path d="M 1210.441406 486.796875 L 1152.660156 486.796875 L 1123.769531 536.839844 L 1152.660156 586.882812 L 1210.441406 586.882812 L 1239.328125 536.839844 L 1210.441406 486.796875" fill="#bdeaf9"/></g><g id="change1_45"><path d="M 1152.660156 464.699219 L 1210.441406 464.699219 L 1239.328125 414.65625 L 1210.441406 364.613281 L 1152.660156 364.613281 L 1123.769531 414.65625 L 1152.660156 464.699219" fill="#bdeaf9"/></g><g id="change1_46"><path d="M 893 425.707031 L 835.21875 425.707031 L 806.324219 475.746094 L 835.21875 525.789062 L 893 525.789062 L 921.894531 475.746094 L 893 425.707031" fill="#bdeaf9"/></g><g id="change1_47"><path d="M 1104.628906 425.707031 L 1046.839844 425.707031 L 1017.949219 475.746094 L 1046.839844 525.789062 L 1104.628906 525.789062 L 1133.519531 475.746094 L 1104.628906 425.707031" fill="#bdeaf9"/></g><g id="change1_48"><path d="M 434.292969 731.074219 L 469.515625 670.070312 L 434.292969 609.066406 L 363.851562 609.066406 L 328.632812 670.070312 L 363.851562 731.074219 L 434.292969 731.074219" fill="#bdeaf9"/></g><g id="change1_49"><path d="M 363.851562 460.117188 L 328.632812 521.121094 L 363.851562 582.128906 L 434.292969 582.128906 L 469.515625 521.121094 L 434.292969 460.117188 L 363.851562 460.117188" fill="#bdeaf9"/></g><g id="change1_50"><path d="M 234.859375 385.644531 L 199.640625 446.648438 L 234.859375 507.652344 L 305.300781 507.652344 L 340.523438 446.648438 L 305.300781 385.644531 L 234.859375 385.644531" fill="#bdeaf9"/></g><g id="change1_51"><path d="M 305.300781 656.601562 L 340.523438 595.597656 L 305.300781 534.59375 L 234.859375 534.59375 L 199.640625 595.597656 L 234.859375 656.601562 L 305.300781 656.601562" fill="#bdeaf9"/></g><g id="change1_52"><path d="M 623.589844 670.070312 L 594.699219 720.113281 L 623.589844 770.152344 L 681.375 770.152344 L 710.265625 720.113281 L 681.375 670.070312 L 623.589844 670.070312" fill="#bdeaf9"/></g><g id="change1_53"><path d="M 729.402344 608.980469 L 700.511719 659.023438 L 729.402344 709.0625 L 787.1875 709.0625 L 816.078125 659.023438 L 787.1875 608.980469 L 729.402344 608.980469" fill="#bdeaf9"/></g><g id="change1_54"><path d="M 176.308594 582.128906 L 211.53125 521.121094 L 176.308594 460.117188 L 105.867188 460.117188 L 70.648438 521.121094 L 105.867188 582.128906 L 176.308594 582.128906" fill="#bdeaf9"/></g><g id="change1_55"><path d="M 1316.25 403.605469 L 1345.140625 353.566406 L 1316.25 303.523438 L 1258.46875 303.523438 L 1229.578125 353.566406 L 1258.46875 403.605469 L 1316.25 403.605469" fill="#bdeaf9"/></g><g id="change1_56"><path d="M 681.375 403.605469 L 710.265625 353.566406 L 681.375 303.523438 L 623.589844 303.523438 L 594.699219 353.566406 L 623.589844 403.605469 L 681.375 403.605469" fill="#bdeaf9"/></g><g id="change1_57"><path d="M 75.386719 231.382812 L 46.496094 181.339844 L 0 181.339844 L 0 281.425781 L 46.496094 281.425781 L 75.386719 231.382812" fill="#bdeaf9"/></g><g id="change2_1"><path d="M 1741.929688 289.4375 L 1787.070312 367.621094 L 1877.359375 367.621094 L 1922.5 289.4375 L 1877.359375 211.25 L 1787.070312 211.25 Z M 1785.019531 371.183594 L 1737.820312 289.4375 L 1785.019531 207.6875 L 1879.410156 207.6875 L 1926.609375 289.4375 L 1879.410156 371.183594 L 1785.019531 371.183594" fill="#55aae2"/></g><g id="change2_2"><path d="M 1741.929688 497.125 L 1787.070312 575.3125 L 1877.359375 575.3125 L 1922.5 497.125 L 1877.359375 418.9375 L 1787.070312 418.9375 Z M 1785.019531 578.871094 L 1737.820312 497.125 L 1785.019531 415.378906 L 1879.410156 415.378906 L 1926.609375 497.125 L 1879.410156 578.871094 L 1785.019531 578.871094" fill="#55aae2"/></g><g id="change2_3"><path d="M 1382.210938 289.4375 L 1427.351562 367.621094 L 1517.628906 367.621094 L 1562.769531 289.4375 L 1517.628906 211.25 L 1427.351562 211.25 Z M 1425.289062 371.183594 L 1378.101562 289.4375 L 1425.289062 207.6875 L 1519.691406 207.6875 L 1566.878906 289.4375 L 1519.691406 371.183594 L 1425.289062 371.183594" fill="#55aae2"/></g><g id="change2_4"><path d="M 1382.210938 497.125 L 1427.351562 575.3125 L 1517.628906 575.3125 L 1562.769531 497.125 L 1517.628906 418.9375 L 1427.351562 418.9375 Z M 1425.289062 578.871094 L 1378.101562 497.125 L 1425.289062 415.378906 L 1519.691406 415.378906 L 1566.878906 497.125 L 1519.691406 578.871094 L 1425.289062 578.871094" fill="#55aae2"/></g><g id="change2_5"><path d="M 1562.070312 393.28125 L 1607.210938 471.464844 L 1697.488281 471.464844 L 1742.628906 393.28125 L 1697.488281 315.09375 L 1607.210938 315.09375 Z M 1605.148438 475.027344 L 1557.960938 393.28125 L 1605.148438 311.53125 L 1699.550781 311.53125 L 1746.738281 393.28125 L 1699.550781 475.027344 L 1605.148438 475.027344" fill="#55aae2"/></g><g id="change2_6"><path d="M 1562.070312 600.96875 L 1607.210938 679.15625 L 1697.488281 679.15625 L 1742.628906 600.96875 L 1697.488281 522.78125 L 1607.210938 522.78125 Z M 1605.148438 682.714844 L 1557.960938 600.96875 L 1605.148438 519.222656 L 1699.550781 519.222656 L 1746.738281 600.96875 L 1699.550781 682.714844 L 1605.148438 682.714844" fill="#55aae2"/></g><g id="change2_7"><path d="M 1741.929688 704.8125 L 1787.070312 783 L 1877.359375 783 L 1922.5 704.8125 L 1877.359375 626.625 L 1787.070312 626.625 Z M 1785.019531 786.558594 L 1737.820312 704.8125 L 1785.019531 623.066406 L 1879.410156 623.066406 L 1926.609375 704.8125 L 1879.410156 786.558594 L 1785.019531 786.558594" fill="#55aae2"/></g><g id="change2_8"><path d="M 1562.070312 808.65625 L 1607.210938 886.84375 L 1697.488281 886.84375 L 1742.628906 808.65625 L 1697.488281 730.46875 L 1607.210938 730.46875 Z M 1605.148438 890.40625 L 1557.960938 808.65625 L 1605.148438 726.910156 L 1699.550781 726.910156 L 1746.738281 808.65625 L 1699.550781 890.40625 L 1605.148438 890.40625" fill="#55aae2"/></g><g id="change2_9"><path d="M 1741.929688 912.503906 L 1787.070312 990.6875 L 1877.359375 990.6875 L 1922.5 912.503906 L 1877.359375 834.316406 L 1787.070312 834.316406 Z M 1785.019531 994.25 L 1737.820312 912.503906 L 1785.019531 830.753906 L 1879.410156 830.753906 L 1926.609375 912.503906 L 1879.410156 994.25 L 1785.019531 994.25" fill="#55aae2"/></g><g id="change2_10"><path d="M 1022.480469 289.4375 L 1067.621094 367.621094 L 1157.898438 367.621094 L 1203.039062 289.4375 L 1157.898438 211.25 L 1067.621094 211.25 Z M 1065.558594 371.183594 L 1018.371094 289.4375 L 1065.558594 207.6875 L 1159.960938 207.6875 L 1207.148438 289.4375 L 1159.960938 371.183594 L 1065.558594 371.183594" fill="#55aae2"/></g><g id="change2_11"><path d="M 1022.480469 497.125 L 1067.621094 575.3125 L 1157.898438 575.3125 L 1203.039062 497.125 L 1157.898438 418.9375 L 1067.621094 418.9375 Z M 1065.558594 578.871094 L 1018.371094 497.125 L 1065.558594 415.378906 L 1159.960938 415.378906 L 1207.148438 497.125 L 1159.960938 578.871094 L 1065.558594 578.871094" fill="#55aae2"/></g><g id="change2_12"><path d="M 1202.339844 393.28125 L 1247.480469 471.464844 L 1337.769531 471.464844 L 1382.910156 393.28125 L 1337.769531 315.09375 L 1247.480469 315.09375 Z M 1245.429688 475.027344 L 1198.230469 393.28125 L 1245.429688 311.53125 L 1339.820312 311.53125 L 1387.019531 393.28125 L 1339.820312 475.027344 L 1245.429688 475.027344" fill="#55aae2"/></g><g id="change2_13"><path d="M 1202.339844 600.96875 L 1247.480469 679.15625 L 1337.769531 679.15625 L 1382.910156 600.96875 L 1337.769531 522.78125 L 1247.480469 522.78125 Z M 1245.429688 682.714844 L 1198.230469 600.96875 L 1245.429688 519.222656 L 1339.820312 519.222656 L 1387.019531 600.96875 L 1339.820312 682.714844 L 1245.429688 682.714844" fill="#55aae2"/></g><g id="change2_14"><path d="M 1382.210938 704.8125 L 1427.351562 783 L 1517.628906 783 L 1562.769531 704.8125 L 1517.628906 626.625 L 1427.351562 626.625 Z M 1425.289062 786.558594 L 1378.101562 704.8125 L 1425.289062 623.066406 L 1519.691406 623.066406 L 1566.878906 704.8125 L 1519.691406 786.558594 L 1425.289062 786.558594" fill="#55aae2"/></g><g id="change2_15"><path d="M 662.753906 289.4375 L 707.894531 367.621094 L 798.175781 367.621094 L 843.316406 289.4375 L 798.175781 211.25 L 707.894531 211.25 Z M 705.839844 371.183594 L 658.640625 289.4375 L 705.839844 207.6875 L 800.230469 207.6875 L 847.429688 289.4375 L 800.230469 371.183594 L 705.839844 371.183594" fill="#55aae2"/></g><g id="change2_16"><path d="M 662.753906 497.125 L 707.894531 575.3125 L 798.175781 575.3125 L 843.316406 497.125 L 798.175781 418.9375 L 707.894531 418.9375 Z M 705.839844 578.871094 L 658.640625 497.125 L 705.839844 415.378906 L 800.230469 415.378906 L 847.429688 497.125 L 800.230469 578.871094 L 705.839844 578.871094" fill="#55aae2"/></g><g id="change2_17"><path d="M 842.613281 393.28125 L 887.757812 471.464844 L 978.039062 471.464844 L 1023.179688 393.28125 L 978.039062 315.09375 L 887.757812 315.09375 Z M 885.699219 475.027344 L 838.503906 393.28125 L 885.699219 311.53125 L 980.09375 311.53125 L 1027.289062 393.28125 L 980.09375 475.027344 L 885.699219 475.027344" fill="#55aae2"/></g><g id="change2_18"><path d="M 842.613281 600.96875 L 887.757812 679.15625 L 978.039062 679.15625 L 1023.179688 600.96875 L 978.039062 522.78125 L 887.757812 522.78125 Z M 885.699219 682.714844 L 838.503906 600.96875 L 885.699219 519.222656 L 980.09375 519.222656 L 1027.289062 600.96875 L 980.09375 682.714844 L 885.699219 682.714844" fill="#55aae2"/></g><g id="change2_19"><path d="M 303.023438 81.75 L 348.164062 159.933594 L 438.445312 159.933594 L 483.589844 81.75 L 438.445312 3.558594 L 348.164062 3.558594 Z M 346.109375 163.492188 L 298.914062 81.75 L 346.109375 0 L 440.503906 0 L 487.699219 81.75 L 440.503906 163.492188 L 346.109375 163.492188" fill="#55aae2"/></g><g id="change2_20"><path d="M 303.023438 289.4375 L 348.164062 367.621094 L 438.445312 367.621094 L 483.589844 289.4375 L 438.445312 211.25 L 348.164062 211.25 Z M 346.109375 371.183594 L 298.914062 289.4375 L 346.109375 207.6875 L 440.503906 207.6875 L 487.699219 289.4375 L 440.503906 371.183594 L 346.109375 371.183594" fill="#55aae2"/></g><g id="change2_21"><path d="M 482.890625 185.589844 L 528.027344 263.777344 L 618.308594 263.777344 L 663.453125 185.589844 L 618.308594 107.398438 L 528.027344 107.398438 Z M 525.972656 267.339844 L 478.777344 185.589844 L 525.972656 103.851562 L 620.367188 103.851562 L 667.5625 185.589844 L 620.367188 267.339844 L 525.972656 267.339844" fill="#55aae2"/></g><g id="change2_22"><path d="M 303.023438 497.125 L 348.164062 575.3125 L 438.445312 575.3125 L 483.589844 497.125 L 438.445312 418.9375 L 348.164062 418.9375 Z M 346.109375 578.871094 L 298.914062 497.125 L 346.109375 415.378906 L 440.503906 415.378906 L 487.699219 497.125 L 440.503906 578.871094 L 346.109375 578.871094" fill="#55aae2"/></g><g id="change2_23"><path d="M 482.890625 393.28125 L 528.027344 471.464844 L 618.308594 471.464844 L 663.453125 393.28125 L 618.308594 315.09375 L 528.027344 315.09375 Z M 525.972656 475.027344 L 478.777344 393.28125 L 525.972656 311.53125 L 620.367188 311.53125 L 667.5625 393.28125 L 620.367188 475.027344 L 525.972656 475.027344" fill="#55aae2"/></g><g id="change2_24"><path d="M 482.890625 600.96875 L 528.027344 679.15625 L 618.308594 679.15625 L 663.453125 600.96875 L 618.308594 522.78125 L 528.027344 522.78125 Z M 525.972656 682.714844 L 478.777344 600.96875 L 525.972656 519.222656 L 620.367188 519.222656 L 667.5625 600.96875 L 620.367188 682.714844 L 525.972656 682.714844" fill="#55aae2"/></g><g id="change2_25"><path d="M 482.890625 808.65625 L 528.027344 886.84375 L 618.308594 886.84375 L 663.453125 808.65625 L 618.308594 730.46875 L 528.027344 730.46875 Z M 525.972656 890.40625 L 478.777344 808.65625 L 525.972656 726.910156 L 620.367188 726.910156 L 667.5625 808.65625 L 620.367188 890.40625 L 525.972656 890.40625" fill="#55aae2"/></g><g id="change2_26"><path d="M 123.160156 185.589844 L 168.300781 263.777344 L 258.585938 263.777344 L 303.726562 185.589844 L 258.585938 107.398438 L 168.300781 107.398438 Z M 166.246094 267.339844 L 119.046875 185.589844 L 166.246094 103.851562 L 260.640625 103.851562 L 307.835938 185.589844 L 260.640625 267.339844 L 166.246094 267.339844" fill="#55aae2"/></g><g id="change2_27"><path d="M 123.160156 393.28125 L 168.300781 471.464844 L 258.585938 471.464844 L 303.726562 393.28125 L 258.585938 315.09375 L 168.300781 315.09375 Z M 166.246094 475.027344 L 119.046875 393.28125 L 166.246094 311.53125 L 260.640625 311.53125 L 307.835938 393.28125 L 260.640625 475.027344 L 166.246094 475.027344" fill="#55aae2"/></g><g id="change2_28"><path d="M 123.160156 600.96875 L 168.300781 679.15625 L 258.585938 679.15625 L 303.726562 600.96875 L 258.585938 522.78125 L 168.300781 522.78125 Z M 166.246094 682.714844 L 119.046875 600.96875 L 166.246094 519.222656 L 260.640625 519.222656 L 307.835938 600.96875 L 260.640625 682.714844 L 166.246094 682.714844" fill="#55aae2"/></g><g id="change2_29"><path d="M 303.023438 704.8125 L 348.164062 783 L 438.445312 783 L 483.589844 704.8125 L 438.445312 626.625 L 348.164062 626.625 Z M 346.109375 786.558594 L 298.914062 704.8125 L 346.109375 623.066406 L 440.503906 623.066406 L 487.699219 704.8125 L 440.503906 786.558594 L 346.109375 786.558594" fill="#55aae2"/></g><g id="change2_30"><path d="M 123.160156 808.65625 L 168.300781 886.84375 L 258.585938 886.84375 L 303.726562 808.65625 L 258.585938 730.46875 L 168.300781 730.46875 Z M 166.246094 890.40625 L 119.046875 808.65625 L 166.246094 726.910156 L 260.640625 726.910156 L 307.835938 808.65625 L 260.640625 890.40625 L 166.246094 890.40625" fill="#55aae2"/></g><g id="change2_31"><path d="M 303.023438 912.503906 L 348.164062 990.6875 L 438.445312 990.6875 L 483.589844 912.503906 L 438.445312 834.316406 L 348.164062 834.316406 Z M 346.109375 994.25 L 298.914062 912.503906 L 346.109375 830.753906 L 440.503906 830.753906 L 487.699219 912.503906 L 440.503906 994.25 L 346.109375 994.25" fill="#55aae2"/></g><g id="change2_32"><path d="M 123.160156 1016.351562 L 168.300781 1094.53125 L 258.585938 1094.53125 L 303.726562 1016.351562 L 258.585938 938.160156 L 168.300781 938.160156 Z M 166.246094 1098.089844 L 119.046875 1016.351562 L 166.246094 934.597656 L 260.640625 934.597656 L 307.835938 1016.351562 L 260.640625 1098.089844 L 166.246094 1098.089844" fill="#55aae2"/></g><g id="change2_33"><path d="M 1741.929688 289.4375 L 1787.070312 367.621094 L 1877.359375 367.621094 L 1922.5 289.4375 L 1877.359375 211.25 L 1787.070312 211.25 Z M 1785.019531 371.183594 L 1737.820312 289.4375 L 1785.019531 207.6875 L 1879.410156 207.6875 L 1926.609375 289.4375 L 1879.410156 371.183594 L 1785.019531 371.183594" fill="#55aae2"/></g><g id="change2_34"><path d="M 1741.929688 497.125 L 1787.070312 575.3125 L 1877.359375 575.3125 L 1922.5 497.125 L 1877.359375 418.9375 L 1787.070312 418.9375 Z M 1785.019531 578.871094 L 1737.820312 497.125 L 1785.019531 415.378906 L 1879.410156 415.378906 L 1926.609375 497.125 L 1879.410156 578.871094 L 1785.019531 578.871094" fill="#55aae2"/></g><g id="change2_35"><path d="M 1382.210938 289.4375 L 1427.351562 367.621094 L 1517.628906 367.621094 L 1562.769531 289.4375 L 1517.628906 211.25 L 1427.351562 211.25 Z M 1425.289062 371.183594 L 1378.101562 289.4375 L 1425.289062 207.6875 L 1519.691406 207.6875 L 1566.878906 289.4375 L 1519.691406 371.183594 L 1425.289062 371.183594" fill="#55aae2"/></g><g id="change2_36"><path d="M 1382.210938 497.125 L 1427.351562 575.3125 L 1517.628906 575.3125 L 1562.769531 497.125 L 1517.628906 418.9375 L 1427.351562 418.9375 Z M 1425.289062 578.871094 L 1378.101562 497.125 L 1425.289062 415.378906 L 1519.691406 415.378906 L 1566.878906 497.125 L 1519.691406 578.871094 L 1425.289062 578.871094" fill="#55aae2"/></g><g id="change2_37"><path d="M 1562.070312 393.28125 L 1607.210938 471.464844 L 1697.488281 471.464844 L 1742.628906 393.28125 L 1697.488281 315.09375 L 1607.210938 315.09375 Z M 1605.148438 475.027344 L 1557.960938 393.28125 L 1605.148438 311.53125 L 1699.550781 311.53125 L 1746.738281 393.28125 L 1699.550781 475.027344 L 1605.148438 475.027344" fill="#55aae2"/></g><g id="change2_38"><path d="M 1562.070312 600.96875 L 1607.210938 679.15625 L 1697.488281 679.15625 L 1742.628906 600.96875 L 1697.488281 522.78125 L 1607.210938 522.78125 Z M 1605.148438 682.714844 L 1557.960938 600.96875 L 1605.148438 519.222656 L 1699.550781 519.222656 L 1746.738281 600.96875 L 1699.550781 682.714844 L 1605.148438 682.714844" fill="#55aae2"/></g><g id="change2_39"><path d="M 1741.929688 704.8125 L 1787.070312 783 L 1877.359375 783 L 1922.5 704.8125 L 1877.359375 626.625 L 1787.070312 626.625 Z M 1785.019531 786.558594 L 1737.820312 704.8125 L 1785.019531 623.066406 L 1879.410156 623.066406 L 1926.609375 704.8125 L 1879.410156 786.558594 L 1785.019531 786.558594" fill="#55aae2"/></g><g id="change2_40"><path d="M 1022.480469 289.4375 L 1067.621094 367.621094 L 1157.898438 367.621094 L 1203.039062 289.4375 L 1157.898438 211.25 L 1067.621094 211.25 Z M 1065.558594 371.183594 L 1018.371094 289.4375 L 1065.558594 207.6875 L 1159.960938 207.6875 L 1207.148438 289.4375 L 1159.960938 371.183594 L 1065.558594 371.183594" fill="#55aae2"/></g><g id="change2_41"><path d="M 1022.480469 497.125 L 1067.621094 575.3125 L 1157.898438 575.3125 L 1203.039062 497.125 L 1157.898438 418.9375 L 1067.621094 418.9375 Z M 1065.558594 578.871094 L 1018.371094 497.125 L 1065.558594 415.378906 L 1159.960938 415.378906 L 1207.148438 497.125 L 1159.960938 578.871094 L 1065.558594 578.871094" fill="#55aae2"/></g><g id="change2_42"><path d="M 1202.339844 393.28125 L 1247.480469 471.464844 L 1337.769531 471.464844 L 1382.910156 393.28125 L 1337.769531 315.09375 L 1247.480469 315.09375 Z M 1245.429688 475.027344 L 1198.230469 393.28125 L 1245.429688 311.53125 L 1339.820312 311.53125 L 1387.019531 393.28125 L 1339.820312 475.027344 L 1245.429688 475.027344" fill="#55aae2"/></g><g id="change2_43"><path d="M 1202.339844 600.96875 L 1247.480469 679.15625 L 1337.769531 679.15625 L 1382.910156 600.96875 L 1337.769531 522.78125 L 1247.480469 522.78125 Z M 1245.429688 682.714844 L 1198.230469 600.96875 L 1245.429688 519.222656 L 1339.820312 519.222656 L 1387.019531 600.96875 L 1339.820312 682.714844 L 1245.429688 682.714844" fill="#55aae2"/></g><g id="change2_44"><path d="M 1382.210938 704.8125 L 1427.351562 783 L 1517.628906 783 L 1562.769531 704.8125 L 1517.628906 626.625 L 1427.351562 626.625 Z M 1425.289062 786.558594 L 1378.101562 704.8125 L 1425.289062 623.066406 L 1519.691406 623.066406 L 1566.878906 704.8125 L 1519.691406 786.558594 L 1425.289062 786.558594" fill="#55aae2"/></g><g id="change2_45"><path d="M 662.753906 289.4375 L 707.894531 367.621094 L 798.175781 367.621094 L 843.316406 289.4375 L 798.175781 211.25 L 707.894531 211.25 Z M 705.839844 371.183594 L 658.640625 289.4375 L 705.839844 207.6875 L 800.230469 207.6875 L 847.429688 289.4375 L 800.230469 371.183594 L 705.839844 371.183594" fill="#55aae2"/></g><g id="change2_46"><path d="M 662.753906 497.125 L 707.894531 575.3125 L 798.175781 575.3125 L 843.316406 497.125 L 798.175781 418.9375 L 707.894531 418.9375 Z M 705.839844 578.871094 L 658.640625 497.125 L 705.839844 415.378906 L 800.230469 415.378906 L 847.429688 497.125 L 800.230469 578.871094 L 705.839844 578.871094" fill="#55aae2"/></g><g id="change2_47"><path d="M 842.613281 393.28125 L 887.757812 471.464844 L 978.039062 471.464844 L 1023.179688 393.28125 L 978.039062 315.09375 L 887.757812 315.09375 Z M 885.699219 475.027344 L 838.503906 393.28125 L 885.699219 311.53125 L 980.09375 311.53125 L 1027.289062 393.28125 L 980.09375 475.027344 L 885.699219 475.027344" fill="#55aae2"/></g><g id="change2_48"><path d="M 842.613281 600.96875 L 887.757812 679.15625 L 978.039062 679.15625 L 1023.179688 600.96875 L 978.039062 522.78125 L 887.757812 522.78125 Z M 885.699219 682.714844 L 838.503906 600.96875 L 885.699219 519.222656 L 980.09375 519.222656 L 1027.289062 600.96875 L 980.09375 682.714844 L 885.699219 682.714844" fill="#55aae2"/></g><g id="change2_49"><path d="M 303.023438 289.4375 L 348.164062 367.621094 L 438.445312 367.621094 L 483.589844 289.4375 L 438.445312 211.25 L 348.164062 211.25 Z M 346.109375 371.183594 L 298.914062 289.4375 L 346.109375 207.6875 L 440.503906 207.6875 L 487.699219 289.4375 L 440.503906 371.183594 L 346.109375 371.183594" fill="#55aae2"/></g><g id="change2_50"><path d="M 482.890625 185.589844 L 528.027344 263.777344 L 618.308594 263.777344 L 663.453125 185.589844 L 618.308594 107.398438 L 528.027344 107.398438 Z M 525.972656 267.339844 L 478.777344 185.589844 L 525.972656 103.851562 L 620.367188 103.851562 L 667.5625 185.589844 L 620.367188 267.339844 L 525.972656 267.339844" fill="#55aae2"/></g><g id="change2_51"><path d="M 303.023438 497.125 L 348.164062 575.3125 L 438.445312 575.3125 L 483.589844 497.125 L 438.445312 418.9375 L 348.164062 418.9375 Z M 346.109375 578.871094 L 298.914062 497.125 L 346.109375 415.378906 L 440.503906 415.378906 L 487.699219 497.125 L 440.503906 578.871094 L 346.109375 578.871094" fill="#55aae2"/></g><g id="change2_52"><path d="M 482.890625 393.28125 L 528.027344 471.464844 L 618.308594 471.464844 L 663.453125 393.28125 L 618.308594 315.09375 L 528.027344 315.09375 Z M 525.972656 475.027344 L 478.777344 393.28125 L 525.972656 311.53125 L 620.367188 311.53125 L 667.5625 393.28125 L 620.367188 475.027344 L 525.972656 475.027344" fill="#55aae2"/></g><g id="change2_53"><path d="M 482.890625 600.96875 L 528.027344 679.15625 L 618.308594 679.15625 L 663.453125 600.96875 L 618.308594 522.78125 L 528.027344 522.78125 Z M 525.972656 682.714844 L 478.777344 600.96875 L 525.972656 519.222656 L 620.367188 519.222656 L 667.5625 600.96875 L 620.367188 682.714844 L 525.972656 682.714844" fill="#55aae2"/></g><g id="change2_54"><path d="M 123.160156 185.589844 L 168.300781 263.777344 L 258.585938 263.777344 L 303.726562 185.589844 L 258.585938 107.398438 L 168.300781 107.398438 Z M 166.246094 267.339844 L 119.046875 185.589844 L 166.246094 103.851562 L 260.640625 103.851562 L 307.835938 185.589844 L 260.640625 267.339844 L 166.246094 267.339844" fill="#55aae2"/></g><g id="change2_55"><path d="M 123.160156 393.28125 L 168.300781 471.464844 L 258.585938 471.464844 L 303.726562 393.28125 L 258.585938 315.09375 L 168.300781 315.09375 Z M 166.246094 475.027344 L 119.046875 393.28125 L 166.246094 311.53125 L 260.640625 311.53125 L 307.835938 393.28125 L 260.640625 475.027344 L 166.246094 475.027344" fill="#55aae2"/></g><g id="change2_56"><path d="M 123.160156 600.96875 L 168.300781 679.15625 L 258.585938 679.15625 L 303.726562 600.96875 L 258.585938 522.78125 L 168.300781 522.78125 Z M 166.246094 682.714844 L 119.046875 600.96875 L 166.246094 519.222656 L 260.640625 519.222656 L 307.835938 600.96875 L 260.640625 682.714844 L 166.246094 682.714844" fill="#55aae2"/></g><g id="change2_57"><path d="M 303.023438 704.8125 L 348.164062 783 L 438.445312 783 L 483.589844 704.8125 L 438.445312 626.625 L 348.164062 626.625 Z M 346.109375 786.558594 L 298.914062 704.8125 L 346.109375 623.066406 L 440.503906 623.066406 L 487.699219 704.8125 L 440.503906 786.558594 L 346.109375 786.558594" fill="#55aae2"/></g><g id="change2_58"><path d="M 642.464844 103.851562 C 642.464844 116.050781 632.570312 125.941406 620.367188 125.941406 C 608.164062 125.941406 598.269531 116.050781 598.269531 103.851562 C 598.269531 91.640625 608.164062 81.75 620.367188 81.75 C 632.570312 81.75 642.464844 91.640625 642.464844 103.851562" fill="#55aae2"/></g><g id="change2_59"><path d="M 543.21875 267.339844 C 543.21875 275.707031 536.4375 282.492188 528.066406 282.492188 C 519.695312 282.492188 512.914062 275.707031 512.914062 267.339844 C 512.914062 258.96875 519.695312 252.183594 528.066406 252.183594 C 536.4375 252.183594 543.21875 258.96875 543.21875 267.339844" fill="#55aae2"/></g><g id="change2_60"><path d="M 543.21875 107.398438 C 543.21875 115.769531 536.4375 122.558594 528.066406 122.558594 C 519.695312 122.558594 512.914062 115.769531 512.914062 107.398438 C 512.914062 99.039062 519.695312 92.25 528.066406 92.25 C 536.4375 92.25 543.21875 99.039062 543.21875 107.398438" fill="#55aae2"/></g><g id="change2_61"><path d="M 365.351562 163.492188 C 365.351562 171.863281 358.566406 178.648438 350.199219 178.648438 C 341.828125 178.648438 335.042969 171.863281 335.042969 163.492188 C 335.042969 155.125 341.828125 148.339844 350.199219 148.339844 C 358.566406 148.339844 365.351562 155.125 365.351562 163.492188" fill="#55aae2"/></g><g id="change2_62"><path d="M 456.023438 414.511719 C 456.023438 422.878906 449.238281 429.664062 440.867188 429.664062 C 432.5 429.664062 425.714844 422.878906 425.714844 414.511719 C 425.714844 406.140625 432.5 399.355469 440.867188 399.355469 C 449.238281 399.355469 456.023438 406.140625 456.023438 414.511719" fill="#55aae2"/></g><g id="change2_63"><path d="M 634.761719 475.027344 C 634.761719 483.394531 627.976562 490.179688 619.605469 490.179688 C 611.238281 490.179688 604.453125 483.394531 604.453125 475.027344 C 604.453125 466.65625 611.238281 459.875 619.605469 459.875 C 627.976562 459.875 634.761719 466.65625 634.761719 475.027344" fill="#55aae2"/></g><g id="change2_64"><path d="M 454.898438 623.066406 C 454.898438 631.433594 448.113281 638.21875 439.742188 638.21875 C 431.375 638.21875 424.589844 631.433594 424.589844 623.066406 C 424.589844 614.695312 431.375 607.910156 439.742188 607.910156 C 448.113281 607.910156 454.898438 614.695312 454.898438 623.066406" fill="#55aae2"/></g><g id="change2_65"><path d="M 365.351562 783 C 365.351562 791.367188 358.566406 798.152344 350.199219 798.152344 C 341.828125 798.152344 335.042969 791.367188 335.042969 783 C 335.042969 774.628906 341.828125 767.847656 350.199219 767.847656 C 358.566406 767.847656 365.351562 774.628906 365.351562 783" fill="#55aae2"/></g><g id="change2_66"><path d="M 138.3125 808.65625 C 138.3125 817.027344 131.527344 823.8125 123.160156 823.8125 C 114.789062 823.8125 108.003906 817.027344 108.003906 808.65625 C 108.003906 800.289062 114.789062 793.503906 123.160156 793.503906 C 131.527344 793.503906 138.3125 800.289062 138.3125 808.65625" fill="#55aae2"/></g><g id="change2_67"><path d="M 102.785156 830.753906 C 102.785156 842.910156 92.929688 852.761719 80.777344 852.761719 C 68.621094 852.761719 58.765625 842.910156 58.765625 830.753906 C 58.765625 818.601562 68.621094 808.746094 80.777344 808.746094 C 92.929688 808.746094 102.785156 818.601562 102.785156 830.753906" fill="#55aae2"/></g><g id="change2_68"><path d="M 685.289062 599.914062 C 685.289062 612.070312 675.4375 621.925781 663.28125 621.925781 C 651.128906 621.925781 641.273438 612.070312 641.273438 599.914062 C 641.273438 587.761719 651.128906 577.90625 663.28125 577.90625 C 675.4375 577.90625 685.289062 587.761719 685.289062 599.914062" fill="#55aae2"/></g><g id="change2_69"><path d="M 860.34375 392.226562 C 860.34375 404.382812 850.488281 414.234375 838.335938 414.234375 C 826.179688 414.234375 816.328125 404.382812 816.328125 392.226562 C 816.328125 380.074219 826.179688 370.21875 838.335938 370.21875 C 850.488281 370.21875 860.34375 380.074219 860.34375 392.226562" fill="#55aae2"/></g><g id="change2_70"><path d="M 1229.160156 497.125 C 1229.160156 509.277344 1219.308594 519.132812 1207.148438 519.132812 C 1195 519.132812 1185.148438 509.277344 1185.148438 497.125 C 1185.148438 484.96875 1195 475.117188 1207.148438 475.117188 C 1219.308594 475.117188 1229.160156 484.96875 1229.160156 497.125" fill="#55aae2"/></g><g id="change2_71"><path d="M 1628.5 521.121094 C 1628.5 533.277344 1618.648438 543.132812 1606.488281 543.132812 C 1594.339844 543.132812 1584.488281 533.277344 1584.488281 521.121094 C 1584.488281 508.96875 1594.339844 499.113281 1606.488281 499.113281 C 1618.648438 499.113281 1628.5 508.96875 1628.5 521.121094" fill="#55aae2"/></g><g id="change2_72"><path d="M 1948.621094 709.0625 C 1948.621094 721.21875 1938.769531 731.070312 1926.609375 731.070312 C 1914.460938 731.070312 1904.601562 721.21875 1904.601562 709.0625 C 1904.601562 696.90625 1914.460938 687.054688 1926.609375 687.054688 C 1938.769531 687.054688 1948.621094 696.90625 1948.621094 709.0625" fill="#55aae2"/></g><g clip-path="url(#a)" id="change2_121"><path d="M 1988.5 1094.53125 C 1988.5 1106.691406 1978.640625 1116.539062 1966.488281 1116.539062 C 1954.328125 1116.539062 1944.480469 1106.691406 1944.480469 1094.53125 C 1944.480469 1082.378906 1954.328125 1072.519531 1966.488281 1072.519531 C 1978.640625 1072.519531 1988.5 1082.378906 1988.5 1094.53125" fill="#55aae2"/></g><g id="change2_73"><path d="M 1807.03125 578.871094 C 1807.03125 591.027344 1797.171875 600.878906 1785.019531 600.878906 C 1772.859375 600.878906 1763.011719 591.027344 1763.011719 578.871094 C 1763.011719 566.714844 1772.859375 556.863281 1785.019531 556.863281 C 1797.171875 556.863281 1807.03125 566.714844 1807.03125 578.871094" fill="#55aae2"/></g><g id="change2_74"><path d="M 1896.921875 371.183594 C 1896.921875 383.335938 1887.058594 393.191406 1874.910156 393.191406 C 1862.75 393.191406 1852.898438 383.335938 1852.898438 371.183594 C 1852.898438 359.027344 1862.75 349.175781 1874.910156 349.175781 C 1887.058594 349.175781 1896.921875 359.027344 1896.921875 371.183594" fill="#55aae2"/></g><g id="change2_75"><path d="M 1721.820312 890.40625 C 1721.820312 902.558594 1711.96875 912.414062 1699.820312 912.414062 C 1687.660156 912.414062 1677.808594 902.558594 1677.808594 890.40625 C 1677.808594 878.25 1687.660156 868.398438 1699.820312 868.398438 C 1711.96875 868.398438 1721.820312 878.25 1721.820312 890.40625" fill="#55aae2"/></g><g id="change2_76"><path d="M 1404.210938 701.164062 C 1404.210938 713.316406 1394.359375 723.171875 1382.210938 723.171875 C 1370.050781 723.171875 1360.199219 713.316406 1360.199219 701.164062 C 1360.199219 689.007812 1370.050781 679.15625 1382.210938 679.15625 C 1394.359375 679.15625 1404.210938 689.007812 1404.210938 701.164062" fill="#55aae2"/></g><g id="change2_77"><path d="M 641.613281 886.84375 C 641.613281 899 631.761719 908.851562 619.605469 908.851562 C 607.453125 908.851562 597.597656 899 597.597656 886.84375 C 597.597656 874.6875 607.453125 864.835938 619.605469 864.835938 C 631.761719 864.835938 641.613281 874.6875 641.613281 886.84375" fill="#55aae2"/></g><g id="change2_78"><path d="M 284.113281 938.160156 C 284.113281 950.3125 274.261719 960.167969 262.105469 960.167969 C 249.953125 960.167969 240.097656 950.3125 240.097656 938.160156 C 240.097656 926.003906 249.953125 916.152344 262.105469 916.152344 C 274.261719 916.152344 284.113281 926.003906 284.113281 938.160156" fill="#55aae2"/></g><g id="change2_79"><path d="M 816.328125 211.25 C 816.328125 223.402344 806.472656 233.257812 794.316406 233.257812 C 782.164062 233.257812 772.308594 223.402344 772.308594 211.25 C 772.308594 199.09375 782.164062 189.242188 794.316406 189.242188 C 806.472656 189.242188 816.328125 199.09375 816.328125 211.25" fill="#55aae2"/></g><g id="change2_80"><path d="M 1448.230469 367.621094 C 1448.230469 379.777344 1438.378906 389.632812 1426.21875 389.632812 C 1414.070312 389.632812 1404.210938 379.777344 1404.210938 367.621094 C 1404.210938 355.46875 1414.070312 345.613281 1426.21875 345.613281 C 1438.378906 345.613281 1448.230469 355.46875 1448.230469 367.621094" fill="#55aae2"/></g><g id="change2_81"><path d="M 1575.039062 704.8125 C 1575.039062 712.210938 1569.039062 718.207031 1561.648438 718.207031 C 1554.25 718.207031 1548.25 712.210938 1548.25 704.8125 C 1548.25 697.414062 1554.25 691.417969 1561.648438 691.417969 C 1569.039062 691.417969 1575.039062 697.414062 1575.039062 704.8125" fill="#55aae2"/></g><g id="change2_82"><path d="M 1713.210938 730.46875 C 1713.210938 737.867188 1707.210938 743.863281 1699.820312 743.863281 C 1692.421875 743.863281 1686.421875 737.867188 1686.421875 730.46875 C 1686.421875 723.070312 1692.421875 717.074219 1699.820312 717.074219 C 1707.210938 717.074219 1713.210938 723.070312 1713.210938 730.46875" fill="#55aae2"/></g><g id="change2_83"><path d="M 1935.890625 497.125 C 1935.890625 504.519531 1929.898438 510.519531 1922.5 510.519531 C 1915.101562 510.519531 1909.101562 504.519531 1909.101562 497.125 C 1909.101562 489.726562 1915.101562 483.730469 1922.5 483.730469 C 1929.898438 483.730469 1935.890625 489.726562 1935.890625 497.125" fill="#55aae2"/></g><g id="change2_84"><path d="M 1713.210938 311.53125 C 1713.210938 318.929688 1707.210938 324.929688 1699.820312 324.929688 C 1692.421875 324.929688 1686.421875 318.929688 1686.421875 311.53125 C 1686.421875 304.136719 1692.421875 298.136719 1699.820312 298.136719 C 1707.210938 298.136719 1713.210938 304.136719 1713.210938 311.53125" fill="#55aae2"/></g><g id="change2_85"><path d="M 1807.03125 211.25 C 1807.03125 223.402344 1797.171875 233.257812 1785.019531 233.257812 C 1772.859375 233.257812 1763.011719 223.402344 1763.011719 211.25 C 1763.011719 199.09375 1772.859375 189.242188 1785.019531 189.242188 C 1797.171875 189.242188 1807.03125 199.09375 1807.03125 211.25" fill="#55aae2"/></g><g id="change2_86"><path d="M 1974.328125 103.851562 C 1974.328125 110.199219 1969.179688 115.351562 1962.828125 115.351562 C 1956.46875 115.351562 1951.320312 110.199219 1951.320312 103.851562 C 1951.320312 97.488281 1956.46875 92.339844 1962.828125 92.339844 C 1969.179688 92.339844 1974.328125 97.488281 1974.328125 103.851562" fill="#55aae2"/></g><g id="change2_87"><path d="M 1529.128906 211.25 C 1529.128906 217.601562 1523.980469 222.753906 1517.628906 222.753906 C 1511.28125 222.753906 1506.121094 217.601562 1506.121094 211.25 C 1506.121094 204.894531 1511.28125 199.746094 1517.628906 199.746094 C 1523.980469 199.746094 1529.128906 204.894531 1529.128906 211.25" fill="#55aae2"/></g><g id="change2_88"><path d="M 1749.820312 497.125 C 1749.820312 503.476562 1744.671875 508.628906 1738.320312 508.628906 C 1731.96875 508.628906 1726.820312 503.476562 1726.820312 497.125 C 1726.820312 490.769531 1731.96875 485.621094 1738.320312 485.621094 C 1744.671875 485.621094 1749.820312 490.769531 1749.820312 497.125" fill="#55aae2"/></g><g id="change2_89"><path d="M 1573.570312 808.65625 C 1573.570312 815.011719 1568.421875 820.160156 1562.070312 820.160156 C 1555.71875 820.160156 1550.570312 815.011719 1550.570312 808.65625 C 1550.570312 802.304688 1555.71875 797.152344 1562.070312 797.152344 C 1568.421875 797.152344 1573.570312 802.304688 1573.570312 808.65625" fill="#55aae2"/></g><g id="change2_90"><path d="M 907.164062 682.714844 C 907.164062 694.140625 897.902344 703.402344 886.476562 703.402344 C 875.050781 703.402344 865.789062 694.140625 865.789062 682.714844 C 865.789062 671.289062 875.050781 662.027344 886.476562 662.027344 C 897.902344 662.027344 907.164062 671.289062 907.164062 682.714844" fill="#55aae2"/></g><g id="change2_91"><path d="M 1268.050781 315.09375 C 1268.050781 327.246094 1258.199219 337.101562 1246.050781 337.101562 C 1233.890625 337.101562 1224.039062 327.246094 1224.039062 315.09375 C 1224.039062 302.9375 1233.890625 293.085938 1246.050781 293.085938 C 1258.199219 293.085938 1268.050781 302.9375 1268.050781 315.09375" fill="#55aae2"/></g><g id="change2_92"><path d="M 498.742188 497.125 C 498.742188 505.492188 491.957031 512.277344 483.589844 512.277344 C 475.21875 512.277344 468.433594 505.492188 468.433594 497.125 C 468.433594 488.753906 475.21875 481.972656 483.589844 481.972656 C 491.957031 481.972656 498.742188 488.753906 498.742188 497.125" fill="#55aae2"/></g><g id="change2_93"><path d="M 993.191406 471.464844 C 993.191406 479.835938 986.40625 486.621094 978.039062 486.621094 C 969.671875 486.621094 962.886719 479.835938 962.886719 471.464844 C 962.886719 463.097656 969.671875 456.3125 978.039062 456.3125 C 986.40625 456.3125 993.191406 463.097656 993.191406 471.464844" fill="#55aae2"/></g><g id="change2_94"><path d="M 1038.328125 600.96875 C 1038.328125 609.339844 1031.550781 616.121094 1023.179688 616.121094 C 1014.808594 616.121094 1008.03125 609.339844 1008.03125 600.96875 C 1008.03125 592.597656 1014.808594 585.816406 1023.179688 585.816406 C 1031.550781 585.816406 1038.328125 592.597656 1038.328125 600.96875" fill="#55aae2"/></g><g id="change2_95"><path d="M 1076.921875 367.203125 C 1076.921875 372.851562 1072.339844 377.425781 1066.699219 377.425781 C 1061.050781 377.425781 1056.46875 372.851562 1056.46875 367.203125 C 1056.46875 361.558594 1061.050781 356.980469 1066.699219 356.980469 C 1072.339844 356.980469 1076.921875 361.558594 1076.921875 367.203125" fill="#55aae2"/></g><g id="change2_96"><path d="M 313.246094 293.085938 C 313.246094 298.730469 308.671875 303.308594 303.023438 303.308594 C 297.378906 303.308594 292.804688 298.730469 292.804688 293.085938 C 292.804688 287.4375 297.378906 282.863281 303.023438 282.863281 C 308.671875 282.863281 313.246094 287.4375 313.246094 293.085938" fill="#55aae2"/></g><g id="change2_97"><path d="M 133.382812 185.589844 C 133.382812 191.238281 128.804688 195.8125 123.160156 195.8125 C 117.515625 195.8125 112.9375 191.238281 112.9375 185.589844 C 112.9375 179.945312 117.515625 175.367188 123.160156 175.367188 C 128.804688 175.367188 133.382812 179.945312 133.382812 185.589844" fill="#55aae2"/></g><g id="change2_98"><path d="M 133.382812 393.28125 C 133.382812 398.925781 128.804688 403.503906 123.160156 403.503906 C 117.515625 403.503906 112.9375 398.925781 112.9375 393.28125 C 112.9375 387.632812 117.515625 383.058594 123.160156 383.058594 C 128.804688 383.058594 133.382812 387.632812 133.382812 393.28125" fill="#55aae2"/></g><g id="change2_99"><path d="M 358.386719 418.9375 C 358.386719 424.582031 353.8125 429.160156 348.164062 429.160156 C 342.519531 429.160156 337.945312 424.582031 337.945312 418.9375 C 337.945312 413.292969 342.519531 408.714844 348.164062 408.714844 C 353.8125 408.714844 358.386719 413.292969 358.386719 418.9375" fill="#55aae2"/></g><g id="change2_100"><path d="M 897.980469 522.78125 C 897.980469 528.429688 893.402344 533.003906 887.757812 533.003906 C 882.113281 533.003906 877.535156 528.429688 877.535156 522.78125 C 877.535156 517.136719 882.113281 512.558594 887.757812 512.558594 C 893.402344 512.558594 897.980469 517.136719 897.980469 522.78125" fill="#55aae2"/></g><g id="change2_101"><path d="M 1169.71875 211.25 C 1169.71875 216.894531 1165.148438 221.472656 1159.5 221.472656 C 1153.859375 221.472656 1149.28125 216.894531 1149.28125 211.25 C 1149.28125 205.605469 1153.859375 201.027344 1159.5 201.027344 C 1165.148438 201.027344 1169.71875 205.605469 1169.71875 211.25" fill="#55aae2"/></g><g id="change2_102"><path d="M 1347.988281 471.464844 C 1347.988281 477.113281 1343.410156 481.6875 1337.769531 481.6875 C 1332.121094 481.6875 1327.539062 477.113281 1327.539062 471.464844 C 1327.539062 465.820312 1332.121094 461.242188 1337.769531 461.242188 C 1343.410156 461.242188 1347.988281 465.820312 1347.988281 471.464844" fill="#55aae2"/></g><g id="change2_103"><path d="M 1347.988281 521.121094 C 1347.988281 526.769531 1343.410156 531.34375 1337.769531 531.34375 C 1332.121094 531.34375 1327.539062 526.769531 1327.539062 521.121094 C 1327.539062 515.476562 1332.121094 510.902344 1337.769531 510.902344 C 1343.410156 510.902344 1347.988281 515.476562 1347.988281 521.121094" fill="#55aae2"/></g><g id="change2_104"><path d="M 1572.289062 393.191406 C 1572.289062 398.835938 1567.71875 403.414062 1562.070312 403.414062 C 1556.421875 403.414062 1551.851562 398.835938 1551.851562 393.191406 C 1551.851562 387.546875 1556.421875 382.96875 1562.070312 382.96875 C 1567.71875 382.96875 1572.289062 387.546875 1572.289062 393.191406" fill="#55aae2"/></g><g id="change2_105"><path d="M 1936.828125 289.433594 C 1936.828125 295.082031 1932.261719 299.65625 1926.609375 299.65625 C 1920.960938 299.65625 1916.390625 295.082031 1916.390625 289.433594 C 1916.390625 283.789062 1920.960938 279.214844 1926.609375 279.214844 C 1932.261719 279.214844 1936.828125 283.789062 1936.828125 289.433594" fill="#55aae2"/></g><g id="change2_106"><path d="M 1752.160156 704.8125 C 1752.160156 710.460938 1747.578125 715.035156 1741.929688 715.035156 C 1736.289062 715.035156 1731.710938 710.460938 1731.710938 704.8125 C 1731.710938 699.167969 1736.289062 694.59375 1741.929688 694.59375 C 1747.578125 694.59375 1752.160156 699.167969 1752.160156 704.8125" fill="#55aae2"/></g><g id="change2_107"><path d="M 1572.289062 600.96875 C 1572.289062 606.613281 1567.71875 611.191406 1562.070312 611.191406 C 1556.421875 611.191406 1551.851562 606.613281 1551.851562 600.96875 C 1551.851562 595.320312 1556.421875 590.746094 1562.070312 590.746094 C 1567.71875 590.746094 1572.289062 595.320312 1572.289062 600.96875" fill="#55aae2"/></g><g id="change2_108"><path d="M 1936.828125 912.503906 C 1936.828125 918.148438 1932.261719 922.722656 1926.609375 922.722656 C 1920.960938 922.722656 1916.390625 918.148438 1916.390625 912.503906 C 1916.390625 906.855469 1920.960938 902.28125 1926.609375 902.28125 C 1932.261719 902.28125 1936.828125 906.855469 1936.828125 912.503906" fill="#55aae2"/></g><g id="change2_109"><path d="M 272.636719 521.121094 C 272.636719 526.9375 267.921875 531.652344 262.105469 531.652344 C 256.292969 531.652344 251.578125 526.9375 251.578125 521.121094 C 251.578125 515.308594 256.292969 510.59375 262.105469 510.59375 C 267.921875 510.59375 272.636719 515.308594 272.636719 521.121094" fill="#55aae2"/></g><g id="change2_110"><path d="M 100.183594 626.625 C 100.183594 636.371094 92.28125 644.273438 82.535156 644.273438 C 72.789062 644.273438 64.890625 636.371094 64.890625 626.625 C 64.890625 616.878906 72.789062 608.980469 82.535156 608.980469 C 92.28125 608.980469 100.183594 616.878906 100.183594 626.625" fill="#55aae2"/></g><g id="change2_111"><path d="M 127.972656 289.4375 L 80.777344 207.6875 L 0 207.6875 L 0 211.25 L 78.71875 211.25 L 123.859375 289.4375 L 78.71875 367.621094 L 0 367.621094 L 0 371.183594 L 80.777344 371.183594 L 127.972656 289.4375" fill="#55aae2"/></g><g id="change2_112"><path d="M 78.71875 834.316406 L 123.859375 912.503906 L 78.71875 990.6875 L 0 990.6875 L 0 994.25 L 80.777344 994.25 L 127.972656 912.503906 L 80.777344 830.753906 L 0 830.753906 L 0 834.316406 L 78.71875 834.316406" fill="#55aae2"/></g><g id="change2_113"><path d="M 78.71875 626.625 L 123.859375 704.8125 L 78.71875 783 L 0 783 L 0 786.558594 L 80.777344 786.558594 L 127.972656 704.8125 L 80.777344 623.066406 L 0 623.066406 L 0 626.625 L 78.71875 626.625" fill="#55aae2"/></g><g id="change2_114"><path d="M 127.972656 497.125 L 80.777344 415.378906 L 0 415.378906 L 0 418.9375 L 78.71875 418.9375 L 123.859375 497.125 L 78.71875 575.3125 L 0 575.3125 L 0 578.871094 L 80.777344 578.871094 L 127.972656 497.125" fill="#55aae2"/></g><g id="change2_115"><path d="M 127.972656 704.8125 L 80.777344 623.066406 L 0 623.066406 L 0 626.625 L 78.71875 626.625 L 123.859375 704.8125 L 78.71875 783 L 0 783 L 0 786.558594 L 80.777344 786.558594 L 127.972656 704.8125" fill="#55aae2"/></g><g id="change2_116"><path d="M 1917.691406 1016.351562 L 1964.878906 1098.089844 L 2000 1098.089844 L 2000 1094.53125 L 1966.941406 1094.53125 L 1921.800781 1016.351562 L 1966.941406 938.160156 L 2000 938.160156 L 2000 934.597656 L 1964.878906 934.597656 L 1917.691406 1016.351562" fill="#55aae2"/></g><g id="change2_117"><path d="M 1966.941406 471.464844 L 1921.800781 393.28125 L 1966.941406 315.09375 L 2000 315.09375 L 2000 311.53125 L 1964.878906 311.53125 L 1917.691406 393.28125 L 1964.878906 475.027344 L 2000 475.027344 L 2000 471.464844 L 1966.941406 471.464844" fill="#55aae2"/></g><g id="change2_118"><path d="M 1966.941406 263.777344 L 1921.800781 185.589844 L 1966.941406 107.398438 L 2000 107.398438 L 2000 103.851562 L 1964.878906 103.851562 L 1917.691406 185.589844 L 1964.878906 267.339844 L 2000 267.339844 L 2000 263.777344 L 1966.941406 263.777344" fill="#55aae2"/></g><g id="change2_119"><path d="M 1917.691406 600.96875 L 1964.878906 682.714844 L 2000 682.714844 L 2000 679.15625 L 1966.941406 679.15625 L 1921.800781 600.96875 L 1966.941406 522.78125 L 2000 522.78125 L 2000 519.222656 L 1964.878906 519.222656 L 1917.691406 600.96875" fill="#55aae2"/></g><g id="change2_120"><path d="M 1917.691406 808.65625 L 1964.878906 890.40625 L 2000 890.40625 L 2000 886.84375 L 1966.941406 886.84375 L 1921.800781 808.65625 L 1966.941406 730.46875 L 2000 730.46875 L 2000 726.910156 L 1964.878906 726.910156 L 1917.691406 808.65625" fill="#55aae2"/></g></g></svg>