<?xml version="1.0" encoding="UTF-8" standalone="no"?><svg xmlns="http://www.w3.org/2000/svg" xmlns:xlink="http://www.w3.org/1999/xlink" fill="#5c5da6" height="58" preserveAspectRatio="xMidYMid meet" version="1" viewBox="4.0 2.0 56.0 58.0" width="56" zoomAndPan="magnify"><g data-name="Layer 19" id="change1_1"><path d="M4 33H60V35H4z" fill="inherit"/><path d="M42 37H46V56H42z" fill="inherit"/><path d="M48 37H52V56H48z" fill="inherit"/><path d="M4 58H60V60H4z" fill="inherit"/><path d="M32,19A26,26,0,0,0,10.09,31H53.91A26,26,0,0,0,32,19Z" fill="inherit"/><path d="M37,17.46V15H33V8.134C34.556,8.578,34.889,10,37,10c2.5,0,2.5-2,5-2V3c-2.5,0-2.5,2-5,2-2.111,0-2.444-1.422-4-1.866V2H31V15H27v2.46a27.4,27.4,0,0,1,10,0Z" fill="inherit"/><path d="M54 37H58V56H54z" fill="inherit"/><path d="M12 37H16V56H12z" fill="inherit"/><path d="M18 37H22V56H18z" fill="inherit"/><path d="M36 37H40V56H36z" fill="inherit"/><path d="M6 37H10V56H6z" fill="inherit"/><path d="M30 37H34V56H30z" fill="inherit"/><path d="M24 37H28V56H24z" fill="inherit"/></g></svg>