<?xml version="1.0" encoding="UTF-8" standalone="no"?><svg xmlns="http://www.w3.org/2000/svg" xmlns:xlink="http://www.w3.org/1999/xlink" fill="#000000" height="190.8" preserveAspectRatio="xMidYMid meet" version="1" viewBox="0.0 4.6 200.0 190.8" width="200" zoomAndPan="magnify"><g fill="#5c5da6"><g id="change1_2"><path d="M67.132 96.685H74.498V103.315H67.132z" fill="inherit"/><path d="M174.589 33.433H181.954V40.062H174.589z" fill="inherit"/><path d="M174.589 158.726H181.954V165.355H174.589z" fill="inherit"/><path d="M70.815,121.729c-11.98,0-21.729-9.748-21.729-21.729s9.748-21.729,21.729-21.729 c11.981,0,21.729,9.748,21.729,21.729S82.796,121.729,70.815,121.729z M70.815,84.9c-8.327,0-15.1,6.773-15.1,15.1 s6.773,15.1,15.1,15.1s15.1-6.773,15.1-15.1S79.142,84.9,70.815,84.9z" fill="inherit"/><path d="M178.271,58.476c-11.982,0-21.729-9.747-21.729-21.728s9.746-21.729,21.729-21.729S200,24.766,200,36.748 S190.254,58.476,178.271,58.476z M178.271,21.648c-8.325,0-15.1,6.774-15.1,15.1c0,8.326,6.774,15.099,15.1,15.099 s15.1-6.773,15.1-15.099C193.371,28.422,186.597,21.648,178.271,21.648z" fill="inherit"/><path d="M178.271,183.769c-11.982,0-21.729-9.748-21.729-21.729c0-11.982,9.746-21.728,21.729-21.728 S200,150.058,200,162.04C200,174.021,190.254,183.769,178.271,183.769z M178.271,146.941c-8.325,0-15.1,6.771-15.1,15.099 c0,8.326,6.774,15.1,15.1,15.1s15.1-6.773,15.1-15.1C193.371,153.713,186.597,146.941,178.271,146.941z" fill="inherit"/><path d="M121.506 24.869H128.13400000000001V112.767H121.506z" fill="inherit" transform="rotate(59.994 124.813 68.81)"/><path d="M80.905 127.708H168.161V134.336H80.905z" fill="inherit" transform="rotate(29.991 124.531 131.03)"/><path d="M113.175,124.465l-5.74-3.317c3.699-6.399,5.654-13.713,5.654-21.146c0-7.435-1.955-14.748-5.652-21.146 l5.736-3.317c4.281,7.406,6.545,15.865,6.545,24.464C119.718,108.597,117.454,117.056,113.175,124.465z" fill="inherit"/><path d="M70.81,148.896c-26.959,0-48.893-21.937-48.893-48.895c0-26.968,21.933-48.908,48.893-48.908 c11.883,0,23.338,4.315,32.255,12.153l-4.376,4.979c-7.707-6.773-17.607-10.503-27.878-10.503 c-23.304,0-42.263,18.966-42.263,42.279c0,23.305,18.959,42.265,42.263,42.265c10.266,0,20.169-3.726,27.88-10.493l4.373,4.983 C94.139,144.585,82.687,148.896,70.81,148.896z" fill="inherit"/></g><g><g id="change1_3"><path d="M141.63 195.384L0 195.384 0 4.617 109.657 4.617 141.63 36.586 141.63 74.22 135.001 74.22 135.001 39.332 106.912 11.246 6.629 11.246 6.629 188.755 135.001 188.755 135.001 125.779 141.63 125.779z" fill="inherit"/><path d="M138.313 41.273L104.971 41.273 104.971 7.934 111.6 7.934 111.6 34.645 138.313 34.645z" fill="inherit"/></g><g id="change1_4"><path d="M135.001 81.585H141.63V88.951H135.001z" fill="inherit"/><path d="M135.001 96.316H141.63V103.682H135.001z" fill="inherit"/><path d="M135.001 111.049H141.63V118.414H135.001z" fill="inherit"/></g><g id="change1_5"><path d="M41.331 34.645H93.554V41.274H41.331z" fill="inherit"/><path d="M18.046 34.645H33.965V41.274H18.046z" fill="inherit"/><path d="M18.046 19.913H55.799V26.542H18.046z" fill="inherit"/></g><g id="change1_1"><path d="M18.046 173.413H74.49799999999999V180.042H18.046z" fill="inherit"/><path d="M81.864 173.413H108.285V180.042H81.864z" fill="inherit"/><path d="M18.046 158.682H123.584V165.31099999999998H18.046z" fill="inherit"/></g></g></g></svg>