<?xml version="1.0" encoding="UTF-8" standalone="no"?><svg xmlns="http://www.w3.org/2000/svg" xmlns:xlink="http://www.w3.org/1999/xlink" fill="#5c5da6" height="200" preserveAspectRatio="xMidYMid meet" version="1" viewBox="12.5 0.0 173.6 200.0" width="173.6" zoomAndPan="magnify"><g id="change1_1"><path d="M179.443,6.676C175.155,2.371,169.461,0,163.409,0H54.366c-9.361,0-17.875,5.956-21.185,14.82l-0.286,0.764 c-11.43,1.158-20.383,10.871-20.387,22.644v139.013c0,12.549,10.175,22.758,22.682,22.758h109.048 c6.051,0,11.746-2.371,16.033-6.676c2.543-2.553,4.388-5.609,5.484-8.934l1.351-0.224c11.005-1.825,18.988-11.243,18.984-22.391 V22.762C186.091,16.691,183.731,10.979,179.443,6.676z M35.189,24.344h109.047c7.621,0,13.82,6.229,13.82,13.885v139.012 c0,7.654-6.2,13.881-13.82,13.881H35.193c-7.621,0-13.82-6.227-13.82-13.881V38.229C21.373,30.573,27.571,24.344,35.189,24.344z M144.232,15.468H42.73c2.526-4.083,6.867-6.593,11.635-6.593h109.047c7.621,0,13.82,6.229,13.82,13.885v139.013 c0,6.185-4.187,11.662-10.183,13.322l-0.137,0.038V38.229C166.913,25.678,156.739,15.468,144.232,15.468z" fill="inherit"/><path d="M55.579,52.427h84.811c2.441,0,4.429-1.989,4.431-4.438c0-2.447-1.988-4.438-4.431-4.438H55.579 c-2.443,0-4.431,1.99-4.431,4.438S53.136,52.427,55.579,52.427z" fill="inherit"/><path d="M38.616,65.626H140.39c2.441,0,4.429-1.989,4.431-4.437c0-2.447-1.988-4.438-4.431-4.438H38.616 c-2.443,0-4.431,1.99-4.431,4.438C34.185,63.635,36.173,65.626,38.616,65.626z" fill="inherit"/><path d="M38.823,78.458H140.39c2.441,0,4.429-1.989,4.431-4.438c0-2.447-1.988-4.437-4.431-4.437H38.823 c-2.443,0-4.431,1.99-4.431,4.437C34.393,76.468,36.38,78.458,38.823,78.458z" fill="inherit"/><path d="M140.806,90.277H55.995c-2.443,0-4.431,1.99-4.431,4.438s1.988,4.438,4.431,4.438h84.811c2.443,0,4.431-1.99,4.431-4.438 S143.25,90.277,140.806,90.277z" fill="inherit"/><path d="M140.806,103.476H39.032c-2.443,0-4.431,1.99-4.431,4.438s1.988,4.438,4.431,4.438h101.774c2.443,0,4.431-1.99,4.431-4.438 S143.25,103.476,140.806,103.476z" fill="inherit"/><path d="M140.806,116.308H39.239c-2.443,0-4.431,1.99-4.431,4.438s1.988,4.438,4.431,4.438h101.567c2.443,0,4.431-1.99,4.431-4.438 S143.25,116.308,140.806,116.308z" fill="inherit"/><path d="M140.701,145.882c2.443,0,4.43-1.99,4.43-4.438s-1.988-4.438-4.431-4.438H55.888c-2.443,0-4.431,1.99-4.431,4.438 s1.988,4.438,4.431,4.438H140.701z" fill="inherit"/><path d="M34.498,154.643c0,2.447,1.987,4.438,4.431,4.438h101.772c2.436,0,4.425-1.987,4.434-4.438 c0-2.446-1.988-4.436-4.431-4.436H38.929C36.486,150.207,34.498,152.197,34.498,154.643z" fill="inherit"/><path d="M140.704,163.038H39.137c-2.443,0-4.431,1.99-4.431,4.438s1.988,4.438,4.431,4.438h101.563 c2.434,0,4.424-1.986,4.435-4.438C145.136,165.029,143.148,163.038,140.704,163.038z" fill="inherit"/></g></svg>