<?xml version="1.0" encoding="UTF-8" standalone="no"?><svg xmlns="http://www.w3.org/2000/svg" xmlns:xlink="http://www.w3.org/1999/xlink" data-name="Layer 1" fill="#5c5da6" height="62.2" preserveAspectRatio="xMidYMid meet" version="1" viewBox="0.7 0.8 62.6 62.2" width="62.6" zoomAndPan="magnify"><g id="change1_1"><path d="M57,13a6,6,0,1,0-6-6.53L40.48,14a11,11,0,0,0-17,0L13,6.47a6,6,0,1,0-.23,2.29l9.65,6.89A11.08,11.08,0,0,0,21,20.15l-4.23.7a4,4,0,1,0,.09,2l4.17-.69a10.89,10.89,0,0,0,1.8,4.94l-12.2,9.14A5,5,0,1,0,11,38.54l13.17-9.88A11,11,0,0,0,29,31.58v5l-1.67-1.67a3.29,3.29,0,0,0-5,4.24L26,44.32V55a1,1,0,0,0-1,1v6a1,1,0,0,0,1,1H44a1,1,0,0,0,1-1V56a1,1,0,0,0-1-1V53.51a7.72,7.72,0,0,0,3-6.12V39a3,3,0,0,0-4.12-2.78A3,3,0,0,0,40,34a2.94,2.94,0,0,0-1.47.4A3,3,0,0,0,35,33.17V31.58a11,11,0,0,0,4.88-2.92l13.17,9.88a5,5,0,1,0,.28-2.29l-12.2-9.14a10.89,10.89,0,0,0,1.8-4.94l4.17.69a4,4,0,1,0,.09-2L43,20.15a11.08,11.08,0,0,0-1.35-4.5l9.65-6.89A6,6,0,0,0,57,13ZM57,3a4,4,0,1,1-4,4A4,4,0,0,1,57,3ZM7,11a4,4,0,1,1,4-4A4,4,0,0,1,7,11Zm6,13a2,2,0,1,1,2-2A2,2,0,0,1,13,24ZM6,41a3,3,0,1,1,3-3A3,3,0,0,1,6,41Zm52-6a3,3,0,1,1-3,3A3,3,0,0,1,58,35ZM43,61H27V57H43Zm0-22a1,1,0,0,1,2,0v4a1,1,0,0,1-2,0Zm-4-2a1,1,0,0,1,2,0v4a1,1,0,0,1-2,0Zm1,7a3,3,0,0,0,1.12-.22,3,3,0,0,0,3.88,2v1.56a5.75,5.75,0,0,1-2.55,4.78A1,1,0,0,0,42,53v2H28V44a.94.94,0,0,0-.19-.58L23.94,38a1.29,1.29,0,0,1,.14-1.67,1.34,1.34,0,0,1,1.84,0l3.37,3.38a1,1,0,0,0,1.09.21A1,1,0,0,0,31,39V24a1,1,0,0,1,2,0V40a3,3,0,0,0,3,3,2.94,2.94,0,0,0,1.47-.4A3,3,0,0,0,40,44Zm-4-9a1,1,0,0,1,1,1v4a1,1,0,0,1-2,0V36A1,1,0,0,1,36,35ZM34.59,22.51a3,3,0,0,0-5.18,0,3,3,0,1,1,5.18,0Zm.41,7V25a5,5,0,1,0-6,0v4.49a9,9,0,1,1,6,0ZM51,20a2,2,0,1,1-2,2A2,2,0,0,1,51,20Z" fill="inherit"/></g></svg>