<?xml version="1.0" encoding="UTF-8" standalone="no"?><svg xmlns="http://www.w3.org/2000/svg" xmlns:xlink="http://www.w3.org/1999/xlink" fill="#5c5da6" height="499.7" preserveAspectRatio="xMidYMid meet" version="1" viewBox="-0.4 0.0 469.8 499.7" width="469.8" zoomAndPan="magnify"><g id="change1_1"><path d="M144.2,290h-6.4v-6.4c0-8-6.5-14.4-14.4-14.4s-14.4,6.5-14.4,14.4v6.4h-6.4c-8,0-14.4,6.5-14.4,14.4s6.5,14.4,14.4,14.4 h6.4v6.4c0,8,6.5,14.4,14.4,14.4s14.4-6.5,14.4-14.4v-6.4h6.4c8,0,14.4-6.5,14.4-14.4S152.2,290,144.2,290z" fill="inherit"/><path d="M18,137.9c-4.2,4.3-17.8,21.8-17.8,66.8v238.8c-0.6,4.7-0.6,14.9,7.8,25.5c14.9,18.9,48.7,28.5,100.4,28.5h41.3 c51.7,0,85.5-9.6,100.4-28.5c8.4-10.6,8.4-20.8,7.8-25.5V204.7c0-45-13.6-62.5-17.8-66.8l-34-38.1V79.9c9.2-5.4,15.3-15,15.3-25.9 V30.7c0-16.9-14.8-30.7-32.9-30.7H69.5C51.4,0,36.6,13.8,36.6,30.7V54c0,10.9,6.1,20.4,15.3,25.9v19.9L18,137.9z M219,157.4 c0.5,0.6,0.3,0.5,0.7,0.8c1.5,2,9.5,14.2,9.5,46.5v239.9c0,1.7-0.3,1.6,0.2,2.8c-0.1,0.8-0.6,2.5-2.7,4.7 c-4.7,4.9-21.6,16.4-76.8,16.4h-41.3c-55.2,0-72.1-11.5-76.8-16.4c-2.1-2.2-2.6-3.9-2.7-4.7c0.5-1.2,0.2-1.1,0.2-2.8V204.7 c0-32.3,8-44.6,9.5-46.5c0.4-0.3,0.2-0.2,0.7-0.8l37.9-42.5c2.4-2.6,3.7-6.1,3.7-9.6V85.1h96.5v20.2c0,3.5,1.3,7,3.7,9.6L219,157.4 z M69.5,28.9h119.2c2.7,0,3.9,1.4,4,1.8l0,23.3c-0.1,0.4-1.4,1.8-4,1.8H69.5c-2.6,0-3.9-1.4-4-1.8l0-23.3 C65.6,30.3,66.9,28.9,69.5,28.9z" fill="inherit"/><path d="M366,61.7v44.9h-8c-8,0-14.4,6.5-14.4,14.4v38.5h-11.9c-8,0-14.4,6.5-14.4,14.4v167.2h-11.3c-8,0-14.4,6.5-14.4,14.4v34.6 c0,8,6.5,14.4,14.4,14.4h31.7v31.8h-0.5c-8,0-14.4,6.5-14.4,14.4v34.6c0,8,6.5,14.4,14.4,14.4h86.6c8,0,14.4-6.5,14.4-14.4V451 c0-8-6.5-14.4-14.4-14.4h-0.5v-31.8H455c8,0,14.4-6.5,14.4-14.4v-34.6c0-8-6.5-14.4-14.4-14.4h-11.3V174.1c0-8-6.5-14.4-14.4-14.4 h-11.9v-38.5c0-8-6.5-14.4-14.4-14.4h-8V61.7c0-8-6.5-14.4-14.4-14.4S366,53.8,366,61.7z M409.3,471.1h-57.7v-5.7h0.5h56.7h0.5 V471.1z M394.4,436.5h-27.9v-31.8h27.9V436.5z M440.6,375.9h-31.7h-56.7h-31.7v-5.7h11.3h97.7h11.3V375.9z M346.1,341.3v-20h23.2 c8,0,14.4-6.5,14.4-14.4s-6.5-14.4-14.4-14.4h-23.2v-13.1h23.2c8,0,14.4-6.5,14.4-14.4c0-8-6.5-14.4-14.4-14.4h-23.2V233h23.2 c8,0,14.4-6.5,14.4-14.4s-6.5-14.4-14.4-14.4h-23.2v-15.6H358h44.9h11.9v152.8H346.1z M372.5,159.7v-24.1h16v24.1H372.5z" fill="inherit"/><path d="M45.5,184v247.4c0,8,6.5,14.4,14.4,14.4h134.3c8,0,14.4-6.5,14.4-14.4V184c0-8-6.5-14.4-14.4-14.4H60 C52,169.5,45.5,176,45.5,184z M74.4,198.4h105.5v218.5H74.4V198.4z" fill="inherit"/></g></svg>